<?xml version="1.0" encoding="utf-8"?>
<!-- Generator: Adobe Illustrator 21.0.2, SVG Export Plug-In . SVG Version: 6.00 Build 0)  -->
<svg version="1.1" id="Capa_1" xmlns="http://www.w3.org/2000/svg" xmlns:xlink="http://www.w3.org/1999/xlink" x="0px" y="0px"
	 viewBox="0 0 200 30" style="enable-background:new 0 0 200 30;" xml:space="preserve">
<style type="text/css">
	.st0{fill:#303A52;}
	.st1{fill:#13A078;}
</style>
<g>
	<g>
		<g>
			<path class="st0" d="M50.8,0.4h9c9,0,15.3,4.1,15.3,14.3c0,10.2-6.3,14.6-14.8,14.6h-9.5V0.4z M59.3,23.2c4,0,7.2-1.7,7.2-8.5
				c0-6.8-3.2-8.2-7.2-8.2h-0.3v16.6H59.3z"/>
			<path class="st0" d="M76.5,0.4h8.3v10.8h6.7V0.4h8.3v28.9h-8.3V17.9h-6.7v11.5h-8.3V0.4z"/>
			<path class="st0" d="M102.1,0.4h21.3v6.4h-13v4.5h11.1v6.4h-11.1v5.2h13.5v6.4h-21.8V0.4z"/>
			<path class="st0" d="M125.1,0.4h11.7c6.7,0,12.5,2.1,12.5,9.3c0,4.1-2,6.9-5.1,8.4l6.8,11.2h-9.2l-5.4-9.7h-3v9.7h-8.3V0.4z
				 M136.2,13.6c3.3,0,5-1.3,5-3.8s-1.7-3.3-5-3.3h-2.8v7.1H136.2z"/>
			<path class="st0" d="M149.9,14.9C149.9,5.1,155,0,162.7,0s12.8,5.1,12.8,14.9c0,10.1-5.2,15.1-12.8,15.1S149.9,24.9,149.9,14.9z
				 M167,14.9c0-5.5-1.6-8.3-4.3-8.3c-2.7,0-4.3,2.8-4.3,8.3c0,5.8,1.6,8.5,4.3,8.5C165.4,23.4,167,20.7,167,14.9z"/>
		</g>
	</g>
	<path class="st0" d="M49.3,6.8V0.4H26.8v6.4h7.1v16.1h-6.3l0,2.3L19.4,0.4h-10L0,29.3h8.5l1.5-6.1h8.6l1.5,6.1h29.2v-6.4h-7.1V6.8
		H49.3z M11.5,17.3l0.5-2c0.7-2.8,1.5-6.2,2.2-9.2h0.2c0.7,2.9,1.6,6.4,2.3,9.2l0.5,2H11.5z"/>
	<rect x="181" y="1.7" class="st1" width="9.5" height="8.8"/>
	<rect x="190.5" y="10.5" class="st1" width="9.5" height="8.8"/>
	<rect x="181" y="19.3" class="st1" width="9.5" height="8.8"/>
</g>
</svg>
