<svg id="Capa_1" data-name="Capa 1" xmlns="http://www.w3.org/2000/svg" width="300" height="300" viewBox="0 0 300 300"><defs><style>.cls-1{fill:#e5eaed;}.cls-2{fill:#13a078;}.cls-3{fill:#4cc1eb;}.cls-4{fill:#303a52;}.cls-5{fill:#abb0b7;}</style></defs><title>hiw</title><path class="cls-1" d="M210.51,175.69h-141a23.72,23.72,0,0,0-23.71,23.72h0a23.72,23.72,0,0,0,23.71,23.71h30.8l10-8.14,3.3,8.14h96.87Z"/><path class="cls-2" d="M230.48,223.12a23.72,23.72,0,0,0,23.71-23.71h0a23.72,23.72,0,0,0-23.71-23.72h-20v47.43Z"/><path class="cls-3" d="M138.47,157.44l-.65-.11Z"/><path class="cls-3" d="M135.51,156.85l-.66-.14Z"/><path class="cls-3" d="M137,157.17l-.67-.14Z"/><path class="cls-3" d="M134,156.49l-1.09-.28Z"/><path class="cls-3" d="M140,157.69l-.57-.1Z"/><path class="cls-3" d="M141.59,157.91l-.26,0Z"/><path class="cls-3" d="M116.31,149.21l-1-.62Z"/><path class="cls-3" d="M120.79,151.65q-2.24-1.11-4.37-2.38Q118.55,150.55,120.79,151.65Z"/><path class="cls-3" d="M185.4,147.84l-.59.39Z"/><path class="cls-3" d="M122,152.23l-.93-.45Z"/><path class="cls-3" d="M123.27,152.81l-.92-.41Z"/><path class="cls-3" d="M114.06,147.8q-2.16-1.43-4.2-3Q111.9,146.38,114.06,147.8Z"/><path class="cls-4" d="M130.12,98.4a28.11,28.11,0,1,1,39.76,0,40.14,40.14,0,0,1,20.27,34.88v11.15a65.28,65.28,0,1,0-80.3.37V133.28A40.14,40.14,0,0,1,130.12,98.4Z"/><path class="cls-3" d="M124.58,153.38l-1-.41Z"/><path class="cls-3" d="M115.14,148.49l-1-.64Z"/><path class="cls-3" d="M132.07,156l-.75-.22Z"/><path class="cls-3" d="M189,145.32l-.59.43Z"/><path class="cls-3" d="M187.83,146.18l-.61.43Z"/><path class="cls-3" d="M190.15,144.43l-.55.43Z"/><path class="cls-3" d="M126.76,154.25c-.71-.27-1.42-.55-2.13-.85C125.34,153.7,126.05,154,126.76,154.25Z"/><path class="cls-3" d="M186.63,147l-.61.41Z"/><path class="cls-3" d="M127.94,154.68l-.85-.31Z"/><path class="cls-3" d="M129.29,155.14l-.81-.27Z"/><path class="cls-3" d="M130.67,155.58l-.78-.25Z"/><path class="cls-3" d="M160.05,157.61l-.41.07Z"/><path class="cls-3" d="M167.84,155.88l-.33.1Z"/><path class="cls-3" d="M169.6,155.35l-.55.17Z"/><path class="cls-3" d="M171.07,154.86l-.6.21Z"/><path class="cls-3" d="M164.73,156.69l-.59.14Z"/><path class="cls-3" d="M172.49,154.35l-.61.23Z"/><path class="cls-3" d="M166.2,156.33l-.52.13Z"/><path class="cls-3" d="M184.08,148.68l-.89.54Z"/><path class="cls-3" d="M163.24,157l-.6.13Z"/><path class="cls-3" d="M178.49,151.77l-.62.3Z"/><path class="cls-3" d="M182.39,149.69l-.59.34Z"/><path class="cls-3" d="M175.25,153.26l-.5.2Z"/><path class="cls-3" d="M179.81,151.1l-.62.32Z"/><path class="cls-3" d="M181.11,150.41l-.61.33Z"/><path class="cls-3" d="M177.09,152.44l-.55.25Z"/><path class="cls-3" d="M146.64,158.34l-.57,0Z"/><path class="cls-3" d="M148.2,158.4l-.49,0Z"/><path class="cls-3" d="M145.08,158.25l-.58,0Z"/><path class="cls-3" d="M161.71,157.33l-.56.1Z"/><path class="cls-3" d="M143.48,158.12l-.52-.05Z"/><path class="cls-3" d="M151.83,158.38l-.5,0Z"/><path class="cls-3" d="M158.14,157.89l-.38,0Z"/><path class="cls-3" d="M173.88,153.82l-.59.23Z"/><path class="cls-3" d="M155.06,158.2l-.59.05Z"/><path class="cls-3" d="M153.48,158.31l-.58,0Z"/><path class="cls-3" d="M156.61,158.06l-.55.06Z"/><path class="cls-4" d="M100.32,223.12l-13,10.58a3.51,3.51,0,0,0,1.34,6.12L94,241.19a.63.63,0,0,1,.46.77l-6.64,25.86,16.89,4.33,6.64-25.85a.64.64,0,0,1,.78-.46l5.31,1.36a3.51,3.51,0,0,0,4.12-4.72l-7.87-19.36-3.3-8.14Z"/><path class="cls-5" d="M109.86,144.8q2,1.57,4.2,3l.09,0,1,.64.17.1,1,.62.11.06q2.13,1.28,4.37,2.38l.27.13.93.45.36.17.92.41.35.16,1,.41,0,0c.71.3,1.42.58,2.13.85l.33.12.85.31.54.19.81.27.6.19.78.25.65.19.75.22.8.22,1.09.28.89.22.66.14.81.18.67.14.83.16.65.11.92.16.57.09,1.38.19.26,0,1.36.16.52.05,1,.09.58,0,1,.06.57,0,1.07,0,.49,0,1.56,0,1.57,0,.5,0,1.07,0,.58,0,1-.06.59-.05,1-.08.55-.06,1.15-.13.38,0,1.5-.21.41-.07,1.1-.18.56-.1.93-.18.6-.13.9-.19.59-.14,1-.23.52-.13,1.31-.35.33-.1c.4-.11.81-.23,1.21-.36l.55-.17.87-.28.6-.21.81-.28.61-.23.8-.3.59-.23.87-.36.5-.2,1.3-.57.54-.25.78-.37.62-.3.7-.35.63-.32.68-.36.62-.33.68-.38c.2-.11.4-.22.59-.34l.8-.47.9-.54.72-.45.59-.39.63-.41.6-.41.59-.41.61-.43.58-.43.59-.43.6-.46.55-.43h0V133.28a40.12,40.12,0,0,0-20.27-34.87,28.13,28.13,0,0,1-39.76,0,40.12,40.12,0,0,0-20.27,34.87V144.8h0Z"/><path class="cls-1" d="M178.11,78.53a28.12,28.12,0,1,0-8.23,19.87A28.11,28.11,0,0,0,178.11,78.53Z"/><path d="M230.48,228.08a28.68,28.68,0,1,0,0-57.35h-161a28.68,28.68,0,1,0,0,57.35H86.33l-2.17,1.77a8.47,8.47,0,0,0,3.24,14.78l1.13.29L83,266.58a5,5,0,0,0,3.58,6.05L103.43,277a4.67,4.67,0,0,0,1.23.16,5,5,0,0,0,4.81-3.73L115,251.72l1.13.29a8.47,8.47,0,0,0,10-11.4L121,228.08H230.48Zm-15-47.42h15a18.75,18.75,0,0,1,0,37.49h-15ZM89.6,240.73Zm23.71.3a5.59,5.59,0,0,0-6.82,4l-5.4,21.05-7.27-1.87,5.4-21a5.61,5.61,0,0,0-4-6.82l-2.52-.65,9.41-7.65,6.18-5,2,5,5.52,13.59ZM117,218.15l-2-5a5,5,0,0,0-7.74-2l-8.64,7h-29a18.75,18.75,0,0,1,0-37.49h136v37.49Z"/><path d="M233.36,208.81l5.78-7.31a5,5,0,0,0,0-6.16L233.36,188a5,5,0,0,0-7.79,6.16l3.34,4.23-3.34,4.23a5,5,0,1,0,7.79,6.16Z"/><path d="M80.21,197.51a5.46,5.46,0,0,0-.46-.86,4.79,4.79,0,0,0-1.37-1.37,4.74,4.74,0,0,0-.86-.46,4.33,4.33,0,0,0-.93-.28,5,5,0,0,0-4.47,1.36,5.1,5.1,0,0,0-.63.75,5.41,5.41,0,0,0-.45.86,5.16,5.16,0,0,0-.29.92,5.41,5.41,0,0,0-.09,1,5.31,5.31,0,0,0,.09,1,4.92,4.92,0,0,0,.29.92,5,5,0,0,0,.45.86,5.19,5.19,0,0,0,.63.76,4,4,0,0,0,.75.61,5,5,0,0,0,.85.46,5.22,5.22,0,0,0,.93.28,4.66,4.66,0,0,0,1,.1,4.47,4.47,0,0,0,1-.1,5,5,0,0,0,.93-.28,4.74,4.74,0,0,0,.86-.46,4.42,4.42,0,0,0,.76-.61,5.27,5.27,0,0,0,1.07-1.62,4.89,4.89,0,0,0,.28-.92,4.57,4.57,0,0,0,.1-1,4.66,4.66,0,0,0-.1-1A5.12,5.12,0,0,0,80.21,197.51Z"/><path d="M106.62,197.51a5.46,5.46,0,0,0-.46-.86,4.5,4.5,0,0,0-.62-.75,5,5,0,0,0-4.48-1.36,4.51,4.51,0,0,0-.93.28,4.66,4.66,0,0,0-.85.46,4.57,4.57,0,0,0-.76.62,5,5,0,0,0-.62.75,4.69,4.69,0,0,0-.45.86,5.16,5.16,0,0,0-.29.92,5.41,5.41,0,0,0-.09,1,5.31,5.31,0,0,0,.09,1,4.92,4.92,0,0,0,.29.92,4.39,4.39,0,0,0,.45.86,5.13,5.13,0,0,0,.62.76,4.07,4.07,0,0,0,.76.61,4.66,4.66,0,0,0,.85.46,5.22,5.22,0,0,0,.93.28,4.57,4.57,0,0,0,1,.1,4.5,4.5,0,0,0,1-.1,5,5,0,0,0,.93-.28,4.74,4.74,0,0,0,.86-.46,4,4,0,0,0,.75-.61,4.57,4.57,0,0,0,.62-.76,5,5,0,0,0,.46-.86,5.76,5.76,0,0,0,.28-.92,5.32,5.32,0,0,0,.1-1,5.43,5.43,0,0,0-.1-1A6.08,6.08,0,0,0,106.62,197.51Z"/><path d="M133,197.51a5.41,5.41,0,0,0-.45-.86,4.5,4.5,0,0,0-.62-.75,5,5,0,0,0-4.48-1.36,4.33,4.33,0,0,0-.93.28,4.74,4.74,0,0,0-.86.46,4.94,4.94,0,0,0-.75.62,4.5,4.5,0,0,0-.62.75,4.69,4.69,0,0,0-.45.86,4.46,4.46,0,0,0-.29.92,5.43,5.43,0,0,0-.1,1,5.32,5.32,0,0,0,.1,1,4.28,4.28,0,0,0,.29.92,4.39,4.39,0,0,0,.45.86,4.57,4.57,0,0,0,.62.76,4.35,4.35,0,0,0,.75.61,4.74,4.74,0,0,0,.86.46,5,5,0,0,0,.93.28,4.75,4.75,0,0,0,1.94,0,5,5,0,0,0,.93-.28,4.74,4.74,0,0,0,.86-.46,4.35,4.35,0,0,0,.75-.61,4.57,4.57,0,0,0,.62-.76,5,5,0,0,0,.45-.86,4.92,4.92,0,0,0,.29-.92,5.32,5.32,0,0,0,.1-1,5.43,5.43,0,0,0-.1-1A4.46,4.46,0,0,0,133,197.51Z"/><path d="M159.43,197.51a4.74,4.74,0,0,0-.46-.86,4.44,4.44,0,0,0-.61-.75,5,5,0,0,0-4.48-1.36,4.33,4.33,0,0,0-.93.28,4.74,4.74,0,0,0-.86.46,5.15,5.15,0,0,0-1.37,1.37,5.46,5.46,0,0,0-.46.86,5.12,5.12,0,0,0-.28.92,5.43,5.43,0,0,0-.1,1,5.32,5.32,0,0,0,.1,1,4.89,4.89,0,0,0,.28.92,5,5,0,0,0,.46.86,4.57,4.57,0,0,0,.62.76,4,4,0,0,0,.75.61,4.74,4.74,0,0,0,.86.46,5,5,0,0,0,.93.28,4.5,4.5,0,0,0,1,.1,4.41,4.41,0,0,0,1-.1,4.77,4.77,0,0,0,.93-.28,4.43,4.43,0,0,0,.86-.46,4.07,4.07,0,0,0,.76-.61,4.52,4.52,0,0,0,.61-.76,4.43,4.43,0,0,0,.46-.86,4.89,4.89,0,0,0,.28-.92,4.57,4.57,0,0,0,.1-1,4.66,4.66,0,0,0-.1-1A5.12,5.12,0,0,0,159.43,197.51Z"/><path d="M185.84,197.51a4.74,4.74,0,0,0-.46-.86,5.15,5.15,0,0,0-1.37-1.37,5,5,0,0,0-.85-.46,4.7,4.7,0,0,0-.93-.28,4.92,4.92,0,0,0-1.95,0,4.25,4.25,0,0,0-.92.28,4.43,4.43,0,0,0-.86.46,4.57,4.57,0,0,0-.76.62,4.44,4.44,0,0,0-.61.75,4.74,4.74,0,0,0-.46.86,5.12,5.12,0,0,0-.28.92,4.66,4.66,0,0,0-.1,1,4.57,4.57,0,0,0,.1,1,4.89,4.89,0,0,0,.28.92,4.43,4.43,0,0,0,.46.86,4.52,4.52,0,0,0,.61.76,4.07,4.07,0,0,0,.76.61,4.43,4.43,0,0,0,.86.46,4.89,4.89,0,0,0,.92.28,4.57,4.57,0,0,0,1,.1,4.66,4.66,0,0,0,1-.1,5.48,5.48,0,0,0,.93-.28,5,5,0,0,0,.85-.46,4,4,0,0,0,.75-.61,4.57,4.57,0,0,0,.62-.76,4.43,4.43,0,0,0,.46-.86,4.25,4.25,0,0,0,.28-.92,4.57,4.57,0,0,0,.1-1,4.66,4.66,0,0,0-.1-1A4.42,4.42,0,0,0,185.84,197.51Z"/><path d="M106.81,148.72A69.44,69.44,0,0,0,146,163.28l.31,0,1.36,0h.41l1.68,0c.57,0,1.14,0,1.7,0h.39l1.39,0h.27a69.52,69.52,0,0,0,39.71-15,4.28,4.28,0,0,0,.45-.4,70.25,70.25,0,1,0-87.24.46A3.9,3.9,0,0,0,106.81,148.72Zm78.37-6.79a60,60,0,0,1-29,11.18l-.92.09-1,.09-1.79.1-.61,0c-.7,0-1.4,0-2.1,0s-1.38,0-2.06,0l-.61,0c-.57,0-1.14-.06-1.71-.1l-1-.08-1.07-.1-1.18-.14-.21,0a59.93,59.93,0,0,1-27.11-10.67v-9a35.15,35.15,0,0,1,14.85-28.69,33,33,0,0,0,40.66,0,35.15,35.15,0,0,1,14.85,28.69v8.65ZM89.44,93.13a60.32,60.32,0,1,1,105.67,39.74A45.06,45.06,0,0,0,177.2,97.32a32.93,32.93,0,0,0,5.88-18.79,33.39,33.39,0,0,0-.36-4.91,5,5,0,0,0-9.83,1.46,23.26,23.26,0,0,1,.26,3.45,23,23,0,0,1-4.5,13.68,23.25,23.25,0,0,1-8.86,7.28,23.07,23.07,0,0,1-19.58,0A23.14,23.14,0,0,1,150,55.38a23.75,23.75,0,0,1,5.2.58,5,5,0,1,0,2.22-9.68,33.56,33.56,0,0,0-7.42-.83,33.05,33.05,0,0,0-27.2,51.87,45.06,45.06,0,0,0-17.91,36v.11A60,60,0,0,1,89.44,93.13Z"/><path d="M166,61.3a4.35,4.35,0,0,0,.46.85,4.07,4.07,0,0,0,.61.76,4.57,4.57,0,0,0,.76.62,4.7,4.7,0,0,0,.86.46,4.89,4.89,0,0,0,.92.28,5.27,5.27,0,0,0,1.94,0,5,5,0,0,0,.93-.28,5.46,5.46,0,0,0,.86-.46,4.94,4.94,0,0,0,.75-.62,4.57,4.57,0,0,0,.62-.76,4.77,4.77,0,0,0,.74-1.78,5.23,5.23,0,0,0,.1-1,5.32,5.32,0,0,0-.1-1,5,5,0,0,0-.28-.93,5.46,5.46,0,0,0-.46-.86,5.15,5.15,0,0,0-1.37-1.37,4.69,4.69,0,0,0-.86-.45,5,5,0,0,0-.93-.29,4.78,4.78,0,0,0-2.86.29,4.13,4.13,0,0,0-.86.45,4.57,4.57,0,0,0-.76.62,4.35,4.35,0,0,0-.61.75,4.74,4.74,0,0,0-.46.86,4.33,4.33,0,0,0-.28.93,4.57,4.57,0,0,0-.1,1,4.5,4.5,0,0,0,.1,1A4.33,4.33,0,0,0,166,61.3Z"/></svg>