<svg id="Capa_1" data-name="Capa 1" xmlns="http://www.w3.org/2000/svg" width="300" height="300" viewBox="0 0 300 300"><defs><style>.cls-1{fill:#303a52;}.cls-2{fill:#ccac92;}.cls-3{fill:#1b2638;}.cls-4{fill:#c6a07d;}.cls-5{fill:#d8bfab;}.cls-6{fill:#13a078;}.cls-6,.cls-7,.cls-8,.cls-9{stroke:#000;stroke-linejoin:round;}.cls-6,.cls-8,.cls-9{stroke-width:7.13px;}.cls-7{fill:#9b9b9b;stroke-width:8.7px;}.cls-8{fill:#626262;}.cls-9{fill:none;stroke-linecap:round;}</style></defs><title>hiw</title><path class="cls-1" d="M182.22,168.65a9.39,9.39,0,0,1-.42-12.82H132V266.12a2.69,2.69,0,0,0,2.68,2.68h46.74a2.69,2.69,0,0,0,2.68-2.68v-95.6Z"/><path class="cls-2" d="M130.48,118.27H138v15.82h41.55V118.27h5.73a5.88,5.88,0,0,0,5.87-5.86V27.2a5.88,5.88,0,0,0-5.87-5.86h-2.57a5.89,5.89,0,0,0-5.87,5.87V65.48h-3.11V19.27a5.88,5.88,0,0,0-5.86-5.86h-2.58a5.87,5.87,0,0,0-5.86,5.86V65.48h-3.1V19.28a5.89,5.89,0,0,0-5.87-5.87h-2.58A5.88,5.88,0,0,0,142,19.27V65.48h-3.11V24.72a5.88,5.88,0,0,0-5.86-5.87h-2.58a5.89,5.89,0,0,0-5.87,5.87V77.86L117.77,71A9.38,9.38,0,1,0,104.5,84.29l20.11,20.12v8A5.88,5.88,0,0,0,130.48,118.27Z"/><path class="cls-3" d="M182.22,155.37a9.34,9.34,0,0,1,7.95-2.64v-16a2.69,2.69,0,0,0-2.68-2.68h-58.9a2.68,2.68,0,0,0-2.68,2.68v16.38a2.68,2.68,0,0,0,2.68,2.68H181.8C181.94,155.68,182.07,155.52,182.22,155.37Z"/><path class="cls-4" d="M268.89,111.56a5.89,5.89,0,0,0-5.87-5.87h-2.57a5.89,5.89,0,0,0-5.87,5.87v38.28h-3.1V103.63a5.89,5.89,0,0,0-5.87-5.87H243a5.89,5.89,0,0,0-5.87,5.87v46.2h-3.1V103.63a5.89,5.89,0,0,0-5.87-5.87h-2.58a5.88,5.88,0,0,0-5.86,5.87v46.2h-3.11V109.07a5.88,5.88,0,0,0-5.86-5.87H208.2a5.89,5.89,0,0,0-5.87,5.87v53.14l-6.84-6.84a9.39,9.39,0,0,0-13.27,13.28l20.11,20.11v8a5.89,5.89,0,0,0,5.87,5.87h7.54v74.75a2.43,2.43,0,0,0,2.42,2.42h36.72a2.43,2.43,0,0,0,2.42-2.42V202.63H263a5.89,5.89,0,0,0,5.87-5.87Z"/><path class="cls-5" d="M114.52,153.1a5.88,5.88,0,0,0-5.86-5.87h-2.58a5.89,5.89,0,0,0-5.87,5.87v38.28h-3.1V145.17a5.89,5.89,0,0,0-5.87-5.87H88.66a5.88,5.88,0,0,0-5.86,5.87v46.21H79.69V145.17a5.88,5.88,0,0,0-5.86-5.87H71.25a5.89,5.89,0,0,0-5.87,5.87v46.21h-3.1V150.61a5.89,5.89,0,0,0-5.87-5.87H53.83A5.89,5.89,0,0,0,48,150.61v53.14l-6.83-6.84a9.39,9.39,0,0,0-13.28,13.28L48,230.3v8a5.89,5.89,0,0,0,5.87,5.87h7.54v33.21a2.43,2.43,0,0,0,2.42,2.42h36.72a2.43,2.43,0,0,0,2.42-2.42V244.17h5.73a5.88,5.88,0,0,0,5.86-5.87Z"/><path d="M137.27,78.66a4,4,0,0,0-2.36,7.68c.16,0,16,5.16,16,25.15a4,4,0,1,0,8,0C159,90.8,144.77,81,137.27,78.66Z"/><path d="M143.3,140.94h-6.76a4,4,0,0,0,0,8h6.76a4,4,0,0,0,0-8Z"/><path d="M272.91,111.56a9.91,9.91,0,0,0-9.89-9.89h-2.58a9.81,9.81,0,0,0-5,1.34,9.92,9.92,0,0,0-9.87-9.27H243a9.84,9.84,0,0,0-7,2.9l-.43.46a9.86,9.86,0,0,0-7.42-3.36h-2.58a9.92,9.92,0,0,0-9.46,7,9.9,9.9,0,0,0-5.37-1.59H208.2a9.92,9.92,0,0,0-9.89,9.89v43.44a13.39,13.39,0,0,0-4.12-2.8V136.77a6.71,6.71,0,0,0-6.7-6.7h-3.9v-7.78h1.71a9.9,9.9,0,0,0,9.89-9.88V27.2a9.9,9.9,0,0,0-9.89-9.88h-2.57a9.92,9.92,0,0,0-5,1.34,9.9,9.9,0,0,0-9.86-9.27h-2.58a9.84,9.84,0,0,0-7,2.9c-.15.15-.29.3-.43.46a9.86,9.86,0,0,0-7.42-3.36h-2.58a9.89,9.89,0,0,0-9.46,7,9.81,9.81,0,0,0-5.37-1.59h-2.58a9.9,9.9,0,0,0-9.89,9.89V68.15a13.41,13.41,0,0,0-18.94,0,13.44,13.44,0,0,0,0,19l18.94,18.93v6.34a9.9,9.9,0,0,0,9.89,9.88H134v7.78h-5.41a6.71,6.71,0,0,0-6.7,6.7v16.38a6.7,6.7,0,0,0,6.08,6.67v106.3a6.71,6.71,0,0,0,6.7,6.7h46.74a6.71,6.71,0,0,0,6.7-6.7V180.23l10.2,10.2v6.33a9.91,9.91,0,0,0,9.89,9.89h3.52v70.73a6.45,6.45,0,0,0,6.44,6.44h36.72a6.44,6.44,0,0,0,6.43-6.44V265.59a4,4,0,0,0-8,0v10.19H219.76V202.63a4,4,0,0,0-4-4H208.2a1.88,1.88,0,0,1-1.85-1.85v-8a4,4,0,0,0-1.18-2.84l-20.11-20.11a5.37,5.37,0,0,1,7.59-7.6l6.84,6.84a4,4,0,0,0,6.86-2.84V109.07a1.82,1.82,0,0,1,.55-1.3,1.84,1.84,0,0,1,1.3-.55h2.58a1.87,1.87,0,0,1,1.84,1.85v40.76a4,4,0,0,0,4,4h3.11a4,4,0,0,0,4-4V103.63a1.84,1.84,0,0,1,.54-1.3,1.88,1.88,0,0,1,1.3-.55h2.58a1.88,1.88,0,0,1,1.85,1.85v46.21a4,4,0,0,0,4,4h3.1a4,4,0,0,0,4-4V103.63a1.88,1.88,0,0,1,1.85-1.85h2.58a1.88,1.88,0,0,1,1.85,1.85v46.21a4,4,0,0,0,4,4h3.1a4,4,0,0,0,4-4V111.56a1.88,1.88,0,0,1,1.85-1.85H263a1.87,1.87,0,0,1,1.85,1.85v85.2a1.86,1.86,0,0,1-1.84,1.85H257.3a4,4,0,0,0-4,4V246.3a4,4,0,1,0,8,0V206.65H263a9.9,9.9,0,0,0,9.88-9.89Zm-143,26.55h23.5a4,4,0,0,0,0-8H142v-11.8a4,4,0,0,0-4-4h-7.54a1.87,1.87,0,0,1-1.85-1.84v-8a4,4,0,0,0-1.18-2.85L107.34,81.45a5.37,5.37,0,0,1,7.59-7.59l6.84,6.84a4,4,0,0,0,6.86-2.84V24.72a1.88,1.88,0,0,1,1.85-1.85h2.58a1.87,1.87,0,0,1,1.84,1.85V65.48a4,4,0,0,0,4,4H142a4,4,0,0,0,4-4V19.27a1.86,1.86,0,0,1,1.84-1.84h2.58a1.87,1.87,0,0,1,1.85,1.84V65.48a4,4,0,0,0,4,4h3.1a4,4,0,0,0,4-4V19.27A1.88,1.88,0,0,1,164,18a1.84,1.84,0,0,1,1.3-.54h2.58a1.84,1.84,0,0,1,1.84,1.84V65.48a4,4,0,0,0,4,4h3.11a4,4,0,0,0,4-4V27.21a1.87,1.87,0,0,1,1.85-1.85h2.57a1.86,1.86,0,0,1,1.85,1.84v85.21a1.86,1.86,0,0,1-1.85,1.84h-5.72a4,4,0,0,0-4,4v11.8h-2.84a4,4,0,0,0,0,8h13.43v10.78a13.28,13.28,0,0,0-6,2.92H129.93Zm50.14,126.67H136V159.85h39.62a13.42,13.42,0,0,0,3.74,11.64l.7.7Z"/><path d="M215,163a4,4,0,0,0-2.38,7.68c.65.21,16,5.36,16,25.16a4,4,0,0,0,8,0C236.67,175.15,222.49,165.32,215,163Z"/><path d="M114.52,223.52a4,4,0,0,0-4,4V238.3a1.86,1.86,0,0,1-1.84,1.85h-5.73a4,4,0,0,0-4,4v31.61H65.4V244.17a4,4,0,0,0-4-4H53.83A1.88,1.88,0,0,1,52,238.3v-8a4,4,0,0,0-1.17-2.84L30.69,207.35a5.37,5.37,0,0,1,7.59-7.6l6.84,6.84A4,4,0,0,0,52,203.75V150.61a1.86,1.86,0,0,1,.55-1.3,1.88,1.88,0,0,1,1.3-.55h2.58a1.88,1.88,0,0,1,1.85,1.85v40.76a4,4,0,0,0,4,4h3.1a4,4,0,0,0,4-4V145.17a1.8,1.8,0,0,1,.55-1.3,1.84,1.84,0,0,1,1.3-.55h2.58a1.87,1.87,0,0,1,1.84,1.85v46.2a4,4,0,0,0,4,4H82.8a4,4,0,0,0,4-4v-46.2a1.86,1.86,0,0,1,1.84-1.85h2.58a1.88,1.88,0,0,1,1.85,1.85v46.2a4,4,0,0,0,4,4h3.11a4,4,0,0,0,4-4V153.1a1.84,1.84,0,0,1,.55-1.3,1.8,1.8,0,0,1,1.3-.55h2.58a1.88,1.88,0,0,1,1.85,1.85v55.14a4,4,0,0,0,8,0V153.1a9.9,9.9,0,0,0-9.88-9.89h-2.58a9.76,9.76,0,0,0-5,1.35,9.9,9.9,0,0,0-9.87-9.28H88.66a9.81,9.81,0,0,0-7,2.9l-.44.46a9.84,9.84,0,0,0-7.42-3.36H71.24a9.92,9.92,0,0,0-9.46,7,9.87,9.87,0,0,0-5.37-1.59H53.83a9.94,9.94,0,0,0-9.89,9.89v43.44A13.4,13.4,0,0,0,25,213L43.94,232v6.33a9.91,9.91,0,0,0,9.89,9.89h3.52v29.19a6.45,6.45,0,0,0,6.44,6.44h36.72a6.45,6.45,0,0,0,6.44-6.44V248.19h1.71a9.9,9.9,0,0,0,9.88-9.89V227.54A4,4,0,0,0,114.52,223.52Z"/><path d="M60.62,204.55a4,4,0,0,0-2.36,7.69c.16,0,16,5.15,16,25.15a4,4,0,1,0,8,0C82.31,216.69,68.12,206.86,60.62,204.55Z"/><rect class="cls-6" x="52.47" y="259.92" width="58.39" height="21.83" rx="3.67"/><rect class="cls-7" x="210.95" y="249.38" width="51.69" height="40.71" rx="2.67"/><rect class="cls-8" x="207.82" y="229.6" width="58.39" height="21.83" rx="3.67"/><line class="cls-9" x1="62.27" y1="271.94" x2="68.16" y2="271.94"/><line class="cls-9" x1="249.51" y1="239.84" x2="255.4" y2="239.84"/></svg>