<svg id="Capa_1" data-name="Capa 1" xmlns="http://www.w3.org/2000/svg" width="300" height="300" viewBox="0 0 300 300"><defs><style>.cls-1{fill:#13a078;}.cls-2{fill:#9b9b9b;stroke-width:9.27px;}.cls-2,.cls-3,.cls-6,.cls-7,.cls-8,.cls-9{stroke:#000;}.cls-2,.cls-3,.cls-6,.cls-9{stroke-linejoin:round;}.cls-3,.cls-6,.cls-7,.cls-8,.cls-9{fill:none;}.cls-3{stroke-width:9.5px;}.cls-4{fill:#e5eaed;}.cls-5{fill:#303a52;}.cls-6,.cls-9{stroke-width:7.6px;}.cls-7,.cls-8,.cls-9{stroke-linecap:round;}.cls-7,.cls-8{stroke-miterlimit:10;}.cls-7{stroke-width:8.2px;}.cls-8{stroke-width:8.72px;}</style></defs><title>hiw</title><path class="cls-1" d="M123.06,80.67a13.53,13.53,0,0,0-12.75,9A3.36,3.36,0,0,0,112.37,94a3.3,3.3,0,0,0,3.25-.63l14.21,17.06v4.06a3.38,3.38,0,0,0,6.76,0V94.2A13.55,13.55,0,0,0,123.06,80.67Z"/><path class="cls-1" d="M177.17,80.67a13.55,13.55,0,0,1,12.76,9A3.38,3.38,0,0,1,187.87,94a3.31,3.31,0,0,1-3.26-.63l-14.2,17.06v4.06a3.38,3.38,0,0,1-6.76,0V94.2A13.54,13.54,0,0,1,177.17,80.67Z"/><path class="cls-2" d="M203.94,94.27a23.65,23.65,0,0,0-40.29,16.84v10H136.59v-10a23.66,23.66,0,0,0-40.3-16.84L52.93,141.61l5,4.57,1.17-1.28,23.49-13.79,32.85,10.31,14.4,22.87v.93a3.38,3.38,0,0,0,6.76,0h27.06a3.38,3.38,0,0,0,6.76,0v-.93l70.74-19.39,1.17,1.28,5-4.57Z"/><path class="cls-3" d="M112.92,87.43a23.6,23.6,0,0,0-16.63,6.84L52.93,141.61l5,4.57,1.17-1.28,70.74,19.39v.93a3.38,3.38,0,0,0,6.76,0V111.11A23.7,23.7,0,0,0,112.92,87.43Z"/><path class="cls-3" d="M187.32,87.43a23.56,23.56,0,0,1,16.62,6.84l43.37,47.34-5,4.57-1.17-1.28-70.74,19.39v.93a3.38,3.38,0,0,1-6.76,0V111.11A23.7,23.7,0,0,1,187.32,87.43Z"/><circle class="cls-4" cx="89.24" cy="171.98" r="33.09"/><path class="cls-5" d="M89.24,124.64A47.35,47.35,0,1,0,136.59,172,47.39,47.39,0,0,0,89.24,124.64Zm0,79A31.64,31.64,0,1,1,120.88,172,31.68,31.68,0,0,1,89.24,203.62Z"/><circle class="cls-4" cx="210.99" cy="171.98" r="37.2"/><path class="cls-5" d="M211,124.64A47.35,47.35,0,1,0,258.34,172,47.39,47.39,0,0,0,211,124.64Zm0,81.16A33.82,33.82,0,1,1,244.81,172,33.86,33.86,0,0,1,211,205.8Z"/><path class="cls-6" d="M251.16,141.28h0l-.52-.58c-.64-.74-1.31-1.46-2-2.16L206,92a24.61,24.61,0,0,0-15.65-7,14.07,14.07,0,0,0-26.31,7l-.4,17.6-.35,10.56H136.8l-.31-10.56-.57-17.6a14.07,14.07,0,0,0-26.31-7A24.61,24.61,0,0,0,94,92L51.32,138.54c-.68.69-2.48,2.74-2.48,2.74a49.28,49.28,0,1,0,87.08,31.61v-7h28.16v7a49.3,49.3,0,1,0,87.08-31.61Z"/><path class="cls-7" d="M87.62,123.38A48.61,48.61,0,1,0,136.23,172,48.65,48.65,0,0,0,87.62,123.38ZM119,161.59a31.24,31.24,0,1,1-29.46-20.84M101.26,143a31.05,31.05,0,0,1,6.25,3.42,32.16,32.16,0,0,1,4.44,3.8"/><path class="cls-8" d="M212.61,123.38A48.61,48.61,0,1,0,261.22,172,48.65,48.65,0,0,0,212.61,123.38Zm24.8,26.55A33.09,33.09,0,1,1,223,140.45"/><line class="cls-9" x1="146.57" y1="131.48" x2="152.84" y2="131.48"/></svg>